<svg xmlns="http://www.w3.org/2000/svg" xmlns:xlink="http://www.w3.org/1999/xlink" width="195.034" height="30" viewBox="0 0 195.034 30">
  <defs>
    <clipPath id="clip-path">
      <rect id="Rectangle_3" data-name="Rectangle 3" width="30" height="30" fill="#fff" stroke="#707070" stroke-width="1"/>
    </clipPath>
  </defs>
  <g id="logo_site-logo" transform="translate(-475 -11)">
    <g id="logo_site-logo_znak" transform="translate(475 11)">
      <g id="logo_site-logo_znak-2" data-name="logo_site-logo_znak" clip-path="url(#clip-path)">
        <g id="Group_1" data-name="Group 1" transform="translate(-1.974 12.455) rotate(-45)">
          <rect id="Rectangle_2" data-name="Rectangle 2" width="18.662" height="18.662" transform="matrix(0.94, -0.342, 0.342, 0.94, 0, 6.383)" fill="#569ddc"/>
          <rect id="Rectangle_1" data-name="Rectangle 1" width="18.662" height="18.662" transform="translate(0.091 6.292)" fill="#004685"/>
          <circle id="Ellipse_1" data-name="Ellipse 1" cx="1.6" cy="1.6" r="1.6" transform="translate(13.074 14.293)" fill="#fff"/>
        </g>
      </g>
    </g>
    <path id="Path_83" data-name="Path 83" d="M8.234,22H4.184V10.321H.523V7.009H11.884v3.312H8.234Zm20.322,0H24.485V15.889H19.778V22H15.707V7.009h4.071v5.558h4.707V7.009h4.071Zm4.92,0V7.009h4.071V22Zm18.794-4.553a4.422,4.422,0,0,1-.708,2.476,4.633,4.633,0,0,1-2.041,1.682,7.564,7.564,0,0,1-3.127.6,12.653,12.653,0,0,1-2.512-.21,9.326,9.326,0,0,1-2.112-.733V17.652a12.063,12.063,0,0,0,2.41.928,8.979,8.979,0,0,0,2.3.333A2.231,2.231,0,0,0,47.8,18.6a.961.961,0,0,0,.42-.8.886.886,0,0,0-.169-.538,1.97,1.97,0,0,0-.543-.467q-.374-.236-1.994-.964a9.568,9.568,0,0,1-2.2-1.292A3.966,3.966,0,0,1,42.226,13.1a4.765,4.765,0,0,1-.354-1.917,3.843,3.843,0,0,1,1.507-3.23,6.644,6.644,0,0,1,4.143-1.159A11.625,11.625,0,0,1,52.269,7.87L51.029,11a8.991,8.991,0,0,0-3.63-.964,1.892,1.892,0,0,0-1.148.277.838.838,0,0,0-.359.687.992.992,0,0,0,.456.79,17.4,17.4,0,0,0,2.476,1.271,6.85,6.85,0,0,1,2.692,1.871A4.064,4.064,0,0,1,52.269,17.447Zm13,.482a3.773,3.773,0,0,1-1.446,3.138,6.292,6.292,0,0,1-3.989,1.138,9.517,9.517,0,0,1-4.163-.79V19.1a11.315,11.315,0,0,0,2.179.759A9.239,9.239,0,0,0,60,20.134a3.417,3.417,0,0,0,2.148-.554,1.806,1.806,0,0,0,.692-1.487,1.863,1.863,0,0,0-.636-1.425,9.571,9.571,0,0,0-2.625-1.384,6.944,6.944,0,0,1-2.892-1.9,4.014,4.014,0,0,1-.841-2.563A3.59,3.59,0,0,1,57.179,7.87a5.529,5.529,0,0,1,3.579-1.077,10.515,10.515,0,0,1,4.286.943l-.779,2A9.364,9.364,0,0,0,60.7,8.9a2.738,2.738,0,0,0-1.8.518,1.7,1.7,0,0,0-.615,1.369,1.927,1.927,0,0,0,.246,1,2.514,2.514,0,0,0,.81.784,13.7,13.7,0,0,0,2.03.974,11.109,11.109,0,0,1,2.42,1.282,3.77,3.77,0,0,1,1.128,1.343A4.041,4.041,0,0,1,65.27,17.929ZM69.852,22V7.009H72.3V22Zm13.267,0H80.668V9.111H76.259v-2.1H87.528v2.1H83.119Zm16.866,0H91.5V7.009h8.48V9.08H93.955v4.081h5.65v2.051h-5.65v4.707h6.029Zm8.971,0H107.9V7.993h-4.871V7.009h10.8v.984h-4.871Zm8.776,0V7.009h1.046V22Zm10.878,0h-1.056V7.993h-4.871V7.009h10.8v.984h-4.871Zm8.776,0V7.009h1.046V21.016h7.147V22Zm20.65,0h-8.193V7.009h8.193v.964h-7.147v5.67h6.747v.964h-6.747v6.429h7.147Z" transform="translate(512 12)" fill="#004685"/>
  </g>
</svg>
